<svg id="svg" version="1.1" xmlns="http://www.w3.org/2000/svg" xmlns:xlink="http://www.w3.org/1999/xlink" width="400" height="321.11368909512765" viewBox="0, 0, 400,321.11368909512765"><g id="svgg"><path id="path0" d="M0.000 160.643 L 0.000 321.285 200.000 321.285 L 400.000 321.285 400.000 160.643 L 400.000 0.000 200.000 0.000 L 0.000 0.000 0.000 160.643 M182.733 32.264 L 182.814 63.403 181.241 66.481 C 178.286 72.259,173.090 82.402,170.199 88.032 C 168.612 91.124,165.506 97.197,163.297 101.526 C 155.212 117.371,151.171 125.278,148.024 131.406 C 146.254 134.851,143.113 140.996,141.044 145.060 C 138.975 149.124,136.341 154.257,135.191 156.466 C 134.041 158.675,130.820 164.964,128.033 170.442 C 125.247 175.920,121.922 182.426,120.644 184.900 C 119.366 187.373,116.438 193.084,114.137 197.590 C 111.835 202.096,108.348 208.922,106.388 212.759 C 104.428 216.596,101.104 223.102,99.002 227.217 C 96.900 231.332,93.629 237.735,91.733 241.446 C 89.837 245.157,87.073 250.522,85.589 253.369 C 84.105 256.216,82.892 258.854,82.892 259.232 L 82.892 259.918 132.771 259.999 L 182.651 260.080 182.651 290.120 L 182.651 320.161 91.727 320.161 L 0.803 320.161 0.721 287.764 L 0.639 255.368 3.478 250.013 C 5.039 247.068,6.874 243.574,7.554 242.249 C 9.370 238.712,11.138 235.319,12.491 232.771 C 13.147 231.534,14.957 228.079,16.511 225.093 C 18.065 222.107,19.733 218.926,20.219 218.025 C 20.704 217.123,22.590 213.494,24.411 209.960 C 26.231 206.426,27.973 203.100,28.282 202.570 C 28.591 202.040,29.962 199.438,31.329 196.787 C 34.081 191.452,36.689 186.473,38.143 183.775 C 38.667 182.803,40.587 179.116,42.409 175.582 C 44.232 172.048,46.112 168.434,46.587 167.550 C 47.062 166.667,48.362 164.209,49.476 162.088 C 50.590 159.968,52.075 157.149,52.777 155.823 C 53.478 154.498,55.098 151.390,56.376 148.916 C 57.654 146.442,59.207 143.478,59.826 142.329 C 60.446 141.181,62.148 137.928,63.610 135.100 C 65.072 132.273,66.881 128.803,67.631 127.390 C 69.169 124.492,72.773 117.579,75.504 112.289 C 76.507 110.345,77.983 107.526,78.783 106.024 C 79.582 104.522,81.073 101.703,82.095 99.759 C 83.117 97.815,84.562 95.068,85.307 93.655 C 86.052 92.241,87.999 88.482,89.633 85.301 C 91.267 82.120,93.147 78.506,93.812 77.269 C 95.279 74.538,98.209 68.951,100.170 65.147 C 102.357 60.903,108.401 61.380,51.287 61.286 L 1.767 61.205 1.679 31.807 C 1.630 15.639,1.669 2.084,1.765 1.686 L 1.940 0.963 92.295 1.044 L 182.651 1.124 182.733 32.264 M398.957 66.077 L 399.038 131.030 395.934 133.547 C 394.226 134.931,390.922 137.582,388.591 139.438 C 382.737 144.098,374.598 150.623,373.774 151.318 C 373.398 151.636,372.130 152.650,370.956 153.573 C 367.280 156.462,366.726 155.606,377.028 162.954 C 378.795 164.215,380.845 165.692,381.583 166.237 C 382.321 166.783,384.248 168.169,385.866 169.317 C 387.484 170.466,390.061 172.309,391.593 173.413 C 393.124 174.517,395.173 175.981,396.145 176.667 C 397.116 177.353,398.165 178.196,398.475 178.541 C 399.008 179.136,399.033 182.878,398.957 249.665 L 398.876 320.161 307.952 320.161 L 217.028 320.161 216.946 160.964 C 216.901 73.406,216.932 1.586,217.016 1.365 C 217.138 1.044,235.508 0.979,308.022 1.044 L 398.876 1.124 398.957 66.077 M284.031 61.981 C 283.668 62.659,283.530 126.105,283.890 127.042 C 284.165 127.759,332.223 127.826,332.817 127.110 C 333.253 126.585,333.182 62.231,332.744 61.794 C 332.079 61.128,284.389 61.311,284.031 61.981 M284.080 187.695 C 283.569 188.206,283.517 258.344,284.027 259.298 C 284.400 259.994,331.443 260.292,332.530 259.605 C 333.321 259.106,333.423 188.289,332.634 187.711 C 331.853 187.139,284.652 187.123,284.080 187.695 " stroke="none" fill="#060606" fill-rule="evenodd"></path><path id="path1" d="M1.765 1.686 C 1.669 2.084,1.630 15.639,1.679 31.807 L 1.767 61.205 51.287 61.286 C 108.401 61.380,102.357 60.903,100.170 65.147 C 98.209 68.951,95.279 74.538,93.812 77.269 C 93.147 78.506,91.267 82.120,89.633 85.301 C 87.999 88.482,86.052 92.241,85.307 93.655 C 84.562 95.068,83.117 97.815,82.095 99.759 C 81.073 101.703,79.582 104.522,78.783 106.024 C 77.983 107.526,76.507 110.345,75.504 112.289 C 72.773 117.579,69.169 124.492,67.631 127.390 C 66.881 128.803,65.072 132.273,63.610 135.100 C 62.148 137.928,60.446 141.181,59.826 142.329 C 59.207 143.478,57.654 146.442,56.376 148.916 C 55.098 151.390,53.478 154.498,52.777 155.823 C 52.075 157.149,50.590 159.968,49.476 162.088 C 48.362 164.209,47.062 166.667,46.587 167.550 C 46.112 168.434,44.232 172.048,42.409 175.582 C 40.587 179.116,38.667 182.803,38.143 183.775 C 36.689 186.473,34.081 191.452,31.329 196.787 C 29.962 199.438,28.591 202.040,28.282 202.570 C 27.973 203.100,26.231 206.426,24.411 209.960 C 22.590 213.494,20.704 217.123,20.219 218.025 C 19.733 218.926,18.065 222.107,16.511 225.093 C 14.957 228.079,13.147 231.534,12.491 232.771 C 11.138 235.319,9.370 238.712,7.554 242.249 C 6.874 243.574,5.039 247.068,3.478 250.013 L 0.639 255.368 0.721 287.764 L 0.803 320.161 91.727 320.161 L 182.651 320.161 182.651 290.120 L 182.651 260.080 132.771 259.999 L 82.892 259.918 82.892 259.232 C 82.892 258.854,84.105 256.216,85.589 253.369 C 87.073 250.522,89.837 245.157,91.733 241.446 C 93.629 237.735,96.900 231.332,99.002 227.217 C 101.104 223.102,104.428 216.596,106.388 212.759 C 108.348 208.922,111.835 202.096,114.137 197.590 C 116.438 193.084,119.366 187.373,120.644 184.900 C 121.922 182.426,125.247 175.920,128.033 170.442 C 130.820 164.964,134.041 158.675,135.191 156.466 C 136.341 154.257,138.975 149.124,141.044 145.060 C 143.113 140.996,146.254 134.851,148.024 131.406 C 151.171 125.278,155.212 117.371,163.297 101.526 C 165.506 97.197,168.612 91.124,170.199 88.032 C 173.090 82.402,178.286 72.259,181.241 66.481 L 182.814 63.403 182.733 32.264 L 182.651 1.124 92.295 1.044 L 1.940 0.963 1.765 1.686 M217.016 1.365 C 216.932 1.586,216.901 73.406,216.946 160.964 L 217.028 320.161 307.952 320.161 L 398.876 320.161 398.957 249.665 C 399.033 182.878,399.008 179.136,398.475 178.541 C 398.165 178.196,397.116 177.353,396.145 176.667 C 395.173 175.981,393.124 174.517,391.593 173.413 C 390.061 172.309,387.484 170.466,385.866 169.317 C 384.248 168.169,382.321 166.783,381.583 166.237 C 380.845 165.692,378.795 164.215,377.028 162.954 C 366.726 155.606,367.280 156.462,370.956 153.573 C 372.130 152.650,373.398 151.636,373.774 151.318 C 374.598 150.623,382.737 144.098,388.591 139.438 C 390.922 137.582,394.226 134.931,395.934 133.547 L 399.038 131.030 398.957 66.077 L 398.876 1.124 308.022 1.044 C 235.508 0.979,217.138 1.044,217.016 1.365 M332.744 61.794 C 333.182 62.231,333.253 126.585,332.817 127.110 C 332.223 127.826,284.165 127.759,283.890 127.042 C 283.530 126.105,283.668 62.659,284.031 61.981 C 284.389 61.311,332.079 61.128,332.744 61.794 M332.634 187.711 C 333.423 188.289,333.321 259.106,332.530 259.605 C 331.443 260.292,284.400 259.994,284.027 259.298 C 283.517 258.344,283.569 188.206,284.080 187.695 C 284.652 187.123,331.853 187.139,332.634 187.711 " stroke="none" fill="#fbfbfb" fill-rule="evenodd"></path></g></svg>